<?xml version="1.0" encoding="utf-8"?>
<!-- Generator: Adobe Illustrator 23.0.2, SVG Export Plug-In . SVG Version: 6.00 Build 0)  -->
<svg version="1.1" id="Layer_1" xmlns="http://www.w3.org/2000/svg" xmlns:xlink="http://www.w3.org/1999/xlink" x="0px" y="0px"
	 viewBox="0 0 106.2509 297.437" enable-background="new 0 0 106.2509 297.437" xml:space="preserve">
<g>
	<path d="M5.2495,34.0936L2.4498,74.837c-0.0991,1.4395,0.1929,2.8789,0.8452,4.1655l22.1997,43.7915
		c0.1741,0.3436,0.3704,0.6685,0.585,0.9753v55.709l-8.5302,104.5901c-0.5547,6.8071,4.5136,12.7725,11.3183,13.3272
		c6.8047,0.5542,12.7734-4.5098,13.3281-11.3174l7.4286-91.084h7.0021l7.4286,91.084c0.5547,6.8076,6.5234,11.8716,13.3281,11.3174
		c6.8047-0.5547,11.873-6.5201,11.3184-13.3272l-8.5303-104.5917v-55.709c0.2141-0.3064,0.4102-0.6307,0.584-0.9737l22.2002-43.7915
		c0.6528-1.2866,0.9448-2.7261,0.8457-4.1655l-2.7997-40.7436c-3.4534,2.6038-7.733,4.1675-12.3814,4.1675
		c-1.1572,0-2.2847-0.1192-3.3904-0.3032l2.4583,35.7767l-18.965,37.4102H37.528L18.563,73.7344l2.4583-35.7767
		c-1.1058,0.184-2.2334,0.3032-3.3906,0.3032C12.9824,38.2609,8.7029,36.6972,5.2495,34.0936z"/>
	<circle cx="53.1255" cy="82.9464" r="22.5"/>
	<path d="M17.6306,35.2609c9.7371,0,17.6306-7.8934,17.6306-17.6304C35.2612,7.8934,27.3677,0,17.6306,0S0,7.8934,0,17.6304
		C0,27.3674,7.8935,35.2609,17.6306,35.2609z M17.6306,9.3305c4.5839,0,8.2999,3.716,8.2999,8.2999s-3.716,8.2999-8.2999,8.2999
		s-8.2999-3.716-8.2999-8.2999S13.0467,9.3305,17.6306,9.3305z"/>
	<path d="M17.6306,21.1188c1.9266,0,3.4883-1.5618,3.4883-3.4883s-1.5618-3.4884-3.4883-3.4884s-3.4884,1.5618-3.4884,3.4884
		S15.704,21.1188,17.6306,21.1188z"/>
	<path d="M106.2509,17.6304C106.2509,7.8934,98.3574,0,88.6202,0S70.9896,7.8934,70.9896,17.6304
		c0,9.737,7.8935,17.6304,17.6306,17.6304S106.2509,27.3674,106.2509,17.6304z M80.3203,17.6304
		c0-4.5839,3.716-8.2999,8.2999-8.2999s8.2999,3.716,8.2999,8.2999s-3.716,8.2999-8.2999,8.2999S80.3203,22.2144,80.3203,17.6304z"
		/>
	<path d="M92.1086,17.6304c0-1.9266-1.5618-3.4884-3.4883-3.4884s-3.4884,1.5618-3.4884,3.4884s1.5618,3.4883,3.4884,3.4883
		S92.1086,19.557,92.1086,17.6304z"/>
</g>
</svg>
