<?xml version="1.0" encoding="UTF-8" standalone="no"?> <svg xmlns="http://www.w3.org/2000/svg" viewBox="0 0 512 512"><title>Take_exercise</title><g id="Take_exercise"><path d="M268.42,336.43a89.19,89.19,0,0,0-89.09-89.09v10a79.18,79.18,0,0,1,79.09,79.09Z"/><path d="M25.16,333.08h81.59V238h40.9v39.42a91.75,91.75,0,0,0,29,66.8c19.4,18.12,30.52,43.19,30.52,68.76v49h10V413c0-28.33-12.28-56.06-33.69-76.07a81.68,81.68,0,0,1-25.83-59.49v-51.3a24.78,24.78,0,0,1,24.75-24.75h60.82A4.58,4.58,0,0,1,247.8,206,22.86,22.86,0,0,1,225,228.78H179.75v10H225a32.74,32.74,0,0,0,22.94-9.37,26.5,26.5,0,0,0,39.22-4.3A26.51,26.51,0,0,0,333.07,220h9.35v97.12a41.35,41.35,0,0,1-8.3,25,72.91,72.91,0,0,0-15,43.89v76h10V386a63,63,0,0,1,13-37.89,51.28,51.28,0,0,0,10.3-31V220h50.67v8H366v10h37.09v95.08h81.59V272.79l19.4-23.87V147.27l-19.4-23.87V63.11H403.09V176.17h-67.9V149.84A26.51,26.51,0,0,0,292,129.21a26.52,26.52,0,0,0-47.92-12.8,26.86,26.86,0,0,0-2.78-3.27,26.52,26.52,0,0,0-45.15,16,26.3,26.3,0,0,0-16.66-5.89,26.58,26.58,0,0,0-26.54,26.54v31.33h10V149.84a16.56,16.56,0,0,1,16.54-16.54A16.52,16.52,0,0,1,196,149.84h10V131.9a16.54,16.54,0,0,1,33.07,0v13h10v-13a16.53,16.53,0,0,1,33.06,0v17.94h10a16.53,16.53,0,0,1,33.06,0v59.8a16.53,16.53,0,1,1-33.06,0V170h-10v39.61a16.53,16.53,0,0,1-28.19,11.72A32.57,32.57,0,0,0,257.8,206a14.61,14.61,0,0,0-8.73-13.35V158.92h-10v32.45H206V169.93H196v21.44H182.4A34.79,34.79,0,0,0,151.62,210H106.75V186.17h33v-10h-33V63.11H25.16V123.4L5.75,147.27V248.92l19.41,23.87ZM494.08,150.82v94.55l-9.4,11.57V139.25Zm-81-77.71h25.79V289.78h10V73.11h25.8v250h-25.8v-19h-10v19H413.09v-250Zm-10,113.06V210H335.18c0-.13,0-.25,0-.38V186.17ZM148.19,220a35,35,0,0,0-.54,6.1V228h-40.9v-8ZM35.16,73.11H61v19H71v-19h25.8v250H71V106.41H61V323.08H35.16v-250ZM15.75,245.37V150.82l9.41-11.57V256.94Z"/></g></svg>