<?xml version="1.0" encoding="UTF-8" standalone="no"?> <svg xmlns="http://www.w3.org/2000/svg" xmlns:xlink="http://www.w3.org/1999/xlink" viewBox="0 0 64 64"><defs><linearGradient id="linear-gradient" x1="12.204" y1="52.859" x2="51.913" y2="13.15" gradientUnits="userSpaceOnUse"><stop offset="0" stop-color="#41dfd0"/><stop offset="1" stop-color="#ee83ef"/></linearGradient></defs><g id="solid_gradient" data-name="solid gradient"><path d="M58,30a26.042,26.042,0,0,1-1.04,7.3,1,1,0,0,1-.96.719.972.972,0,0,1-.28-.04,1,1,0,0,1-.68-1.24,24.167,24.167,0,0,0,.141-12.982,1,1,0,1,1,1.931-.52A26.078,26.078,0,0,1,58,30ZM55.6,19.079A26.136,26.136,0,0,0,40.32,5.36a1,1,0,0,0-.64,1.895A24.129,24.129,0,0,1,53.788,19.921a1,1,0,0,0,.907.579.982.982,0,0,0,.42-.093A1,1,0,0,0,55.6,19.079ZM29.118,6.171a24.405,24.405,0,0,1,6.723.135,1.087,1.087,0,0,0,.16.012,1,1,0,0,0,.158-1.987,26.385,26.385,0,0,0-7.277-.146,1,1,0,0,0,.236,1.986ZM18,10.285a1,1,0,0,0,.56-.172A23.879,23.879,0,0,1,24.32,7.255a1,1,0,1,0-.64-1.895,25.9,25.9,0,0,0-6.241,3.1A1,1,0,0,0,18,10.285ZM7.225,26.483a.929.929,0,0,0,.18.017,1,1,0,0,0,.983-.821,24,24,0,0,1,4.78-10.559A1,1,0,1,0,11.6,13.88,26,26,0,0,0,6.42,25.321,1,1,0,0,0,7.225,26.483ZM8,30l.005-.479a1,1,0,0,0-.98-1.021H7a1,1,0,0,0-1,.979c0,.173,0,.347,0,.521a25.994,25.994,0,0,0,1.19,7.8A1,1,0,0,0,9.1,37.2,23.992,23.992,0,0,1,8,30Zm42,0a17.971,17.971,0,0,1-.947,5.777,1,1,0,1,0,1.894.643A19.963,19.963,0,0,0,52,30a1,1,0,0,0-2,0ZM47.789,17.723a1,1,0,0,0-1.578,1.228,17.823,17.823,0,0,1,3.281,6.785,1,1,0,0,0,.971.764,1.016,1.016,0,0,0,.237-.028,1,1,0,0,0,.736-1.208A19.793,19.793,0,0,0,47.789,17.723Zm-4.421-1.679a1,1,0,0,0,1.264-1.551,20.033,20.033,0,0,0-3.157-2.11,1,1,0,1,0-.95,1.76A18.063,18.063,0,0,1,43.368,16.044ZM22.525,12.383a20.079,20.079,0,0,0-3.45,2.354,1,1,0,0,0,1.293,1.526,18.024,18.024,0,0,1,3.107-2.12,1,1,0,0,0-.95-1.76ZM13.3,26.472a1.016,1.016,0,0,0,.237.028,1,1,0,0,0,.971-.765A17.85,17.85,0,0,1,15.9,21.948a1,1,0,0,0-1.788-.9,19.9,19.9,0,0,0-1.545,4.213A1,1,0,0,0,13.3,26.472ZM13,29a1,1,0,0,0-1,1,20.005,20.005,0,0,0,.851,5.789,1,1,0,0,0,1.915-.578A17.994,17.994,0,0,1,14,30,1,1,0,0,0,13,29Zm17-5.3V25h4v-1.3a6.927,6.927,0,0,1-4,0Zm3.211-13.54c-.147-.035-.3-.065-.445-.088-.11-.017-.222-.024-.334-.033a5.205,5.205,0,0,0-.865,0c-.111.01-.224.016-.333.033-.15.023-.3.053-.444.088a4.792,4.792,0,0,0-.6.186c-.052.019-.108.032-.159.054a4.944,4.944,0,0,0-.586.318,5.712,5.712,0,0,0,5.1,0,4.917,4.917,0,0,0-.584-.318c-.057-.024-.117-.038-.174-.059A4.991,4.991,0,0,0,33.211,10.165ZM27,17V15a4.956,4.956,0,0,1,.921-2.873,7.554,7.554,0,0,0,8.158,0A4.956,4.956,0,0,1,37,15v2a5,5,0,0,1-10,0Zm2-1a1,1,0,0,0,1,1h1v2a1,1,0,0,0,2,0V16a1,1,0,0,0-1-1H30A1,1,0,0,0,29,16ZM23,35.743V30.216L18.9,38.427a1.009,1.009,0,0,1-.409.427l-7.443,4.134a1.442,1.442,0,0,0,1.39,2.526l7.813-4.262ZM46,49.006,18,49h0a4,4,0,0,0,0,8h0V55.826a2.974,2.974,0,0,1,2.006-2.82L19.9,53a1,1,0,1,1,.2-1.99L30,52,40.91,51A1,1,0,1,1,41.09,53L28,54.186V57H46a4,4,0,0,0,0-7.994Zm6.954-6-7.443-4.135a1,1,0,0,1-.409-.427L41,30.236v5.528l2.754,5.508,7.813,4.261a1.441,1.441,0,0,0,1.39-2.524ZM27,41v6H37V41a1,1,0,0,1,.071-.371L39,35.808V27H25v8.808l1.929,4.821A1,1,0,0,1,27,41ZM20.91,54.831a.995.995,0,0,0-.91.995V57h6V54.368l-4.871.443Z" style="fill:url(#linear-gradient)"/></g></svg>