<?xml version="1.0" encoding="UTF-8" standalone="no"?> <svg xmlns="http://www.w3.org/2000/svg" viewBox="0 0 64 64"><g id="flat"><path d="M40,14H36L34,7c0-1.657,6-3,6-3a2,2,0,0,1,2,2v6A2,2,0,0,1,40,14Z" style="fill:#fed7d3"/><path d="M30,21H19.592l3.245,8.112a2.21,2.21,0,0,1-1.064,2.8l0,0a2.209,2.209,0,0,1-3.051-1.183l-3.49-9.073a3.428,3.428,0,0,1,.347-3.13h0A3.426,3.426,0,0,1,18.425,17H30Z" style="fill:#fed7d3"/><rect x="15" y="4" width="2" height="2" style="fill:#dee1e6"/><rect x="19" y="4" width="10" height="2" style="fill:#dee1e6"/><rect x="11" y="9" width="2" height="2" style="fill:#dee1e6"/><rect x="15" y="9" width="10" height="2" style="fill:#dee1e6"/><rect x="7" y="43" width="2" height="2" style="fill:#dee1e6"/><rect x="11" y="43" width="10" height="2" style="fill:#dee1e6"/><rect x="11" y="37" width="2" height="2" style="fill:#dee1e6"/><rect x="15" y="37" width="10" height="2" style="fill:#dee1e6"/><rect x="35" y="12.417" width="4" height="4.583" style="fill:#fed7d3"/><path d="M33.345,9.034,35,14h1a1,1,0,0,0,1-1V10a2,2,0,0,1,2-2h3V4H37a3.994,3.994,0,0,0-3.121,1.5A3.76,3.76,0,0,0,33.345,9.034Z" style="fill:#363c4a"/><path d="M44,24l-.05.04-.67-.84a1,1,0,0,0-1.71.28L38,33H30V22a1,1,0,0,0-1-1H24V17H42.055A4,4,0,0,1,45.2,18.53l2.26,2.88Z" style="fill:#4cacf2"/><path d="M57.42,17.38a1.994,1.994,0,0,1,.91,2.82l-4.8,8.29a3.429,3.429,0,0,1-4.05,1.54,3.507,3.507,0,0,1-1.64-1.18l-3.89-4.81L44,24l3.46-2.59,3.2,4.07,4.15-7.18A2.075,2.075,0,0,1,57.42,17.38Z" style="fill:#fed7d3"/><path d="M46.214,58.572h0a.478.478,0,0,1-.641.213l-6.73-3.364a1,1,0,0,1-.472-1.289l1.4-3.263,4.66,2.339A4,4,0,0,1,46.214,58.572Z" style="fill:#1c7bd2"/><path d="M24.3,60.744h0a.4.4,0,0,1-.558-.045L19.08,55.237a1,1,0,0,1,.087-1.389L21.74,51.51l3.033,3.619A4,4,0,0,1,24.3,60.744Z" style="fill:#1c7bd2"/><path d="M48.31,38.16a2,2,0,0,1,.95,2.57L44,53l-4.23-2.13,3.84-8.95a1,1,0,0,0-.53-1.31l-1.94-.84,2.4-4Z" style="fill:#fed7d3"/><path d="M35,41v4.14a2.007,2.007,0,0,1-.66,1.49l-9.528,8.545L21.74,51.51,30,44V41Z" style="fill:#fed7d3"/><path d="M43.54,35.77l-2.4,4-3.83-1.64a1.794,1.794,0,0,0-.65-.13H36a1,1,0,0,0-1,1v2H30V33h8Z" style="fill:#1c7bd2"/></g></svg>
