<?xml version="1.0" encoding="UTF-8" standalone="no"?> <svg xmlns="http://www.w3.org/2000/svg" viewBox="0 0 512 512"><defs><style>.cls-1{fill:#ffb74d;}.cls-2{fill:#ffe97d;}.cls-3{fill:#fb8c00;}.cls-4{fill:#bc5100;}.cls-5{fill:#ffb04c;}.cls-6{fill:#f57f17;}.cls-7{fill:#c88719;}</style></defs><g id="filled_outline_copy" data-name="filled outline copy"><path class="cls-1" d="M191.61,379.08,128.09,486.27,79.91,457.73l62.83-106,28.56-48.2,14.84-25L183,261a37.16,37.16,0,0,1-.61-6.72,37.55,37.55,0,0,1,5.85-20.11l30.12-47.43,2.53-4L258,124.32l4-.25.32.2,37.05,23.53L320,160.94l0,0-10.57-6.74a28.08,28.08,0,0,0-30.24,47.32l10.69,6.85-20.94,33,23.34,110.89c7.74,36.78-31.41,65.56-64.2,47.2Zm28.56-48.2,11.73,6.57L227.81,318Z"/><path class="cls-2" d="M116,427.34a7,7,0,0,1-6-10.57l58.33-98.44v0l23-38.9-3.51-19.31a32.42,32.42,0,0,1-.53-5.83,7,7,0,0,1,14,0,18.36,18.36,0,0,0,.3,3.31l4,21.87a7.9,7.9,0,0,1,.11.85h0a7.12,7.12,0,0,1-.1,1.67h0a7.39,7.39,0,0,1-.48,1.56h0a7.22,7.22,0,0,1-.41.78l-24.37,41.13v0L122,423.91A7,7,0,0,1,116,427.34ZM228.63,199.88a7,7,0,0,1-5.91-10.75l34.29-54a7,7,0,1,1,11.81,7.5l-34.28,54A7,7,0,0,1,228.63,199.88Z"/><path class="cls-3" d="M292.25,352.28,268.91,241.39l-77.3,137.69,36.44,20.4C260.84,417.84,300,389.06,292.25,352.28Zm-72.08-21.4L227.81,318l4.09,19.45Z"/><path class="cls-4" d="M217.7,364.1a7,7,0,0,1-6.09-10.43L220.94,337l8.52,4.77a5,5,0,0,0,7.33-5.39l-3.68-17.51a7,7,0,0,1,13.7-2.88l3.68,17.51a19,19,0,0,1-24,22.15l-2.72,4.84A7,7,0,0,1,217.7,364.1Z"/><path class="cls-4" d="M249.42,400.17h0a38.41,38.41,0,0,1-18.93-5.05l-13.74-7.7a7,7,0,1,1,6.84-12.21l13.74,7.69a24.57,24.57,0,0,0,12.09,3.27,7,7,0,1,1,0,14Z"/><path class="cls-5" d="M280.5,361.75a7,7,0,0,1-6.84-5.56l-16.77-79.64a7,7,0,0,1,13.7-2.89l16.77,79.65A7,7,0,0,1,282,361.6,7.21,7.21,0,0,1,280.5,361.75Z"/><path class="cls-3" d="M432,127.72l-18.76,87.54a45,45,0,0,1-69,28l-54.43-34.86-10.69-6.85a28.08,28.08,0,0,1,30.24-47.32L320,161l41.91,26.72L377.24,116Z"/><path class="cls-4" d="M369.13,245.86a7,7,0,0,1,0-14,25.89,25.89,0,0,0,25.53-20.58l16.25-75.81a7,7,0,1,1,13.69,2.94l-16.25,75.8A39.79,39.79,0,0,1,369.13,245.86Z"/><path class="cls-5" d="M351.44,202.28a6.93,6.93,0,0,1-3.76-1.1l-48.5-30.93a9,9,0,0,0-4.85-1.42,7,7,0,0,1,0-14,23,23,0,0,1,12.38,3.62l48.5,30.93a7,7,0,0,1-3.77,12.9Z"/><circle class="cls-1" cx="328" cy="72" r="48"/><path class="cls-6" d="M218.32,186.73,188.2,234.16l-17.46-13.1c-38.48-28.86-20.19-90,27.82-93l59.4-3.72-37.11,58.43Z"/><path class="cls-5" d="M163.72,175.29a7,7,0,0,1-6.71-9c4.51-15.1,17.88-31.76,41.86-33.26l35.9-2.25a7,7,0,1,1,.87,14L199.75,147c-16.81,1.05-26.17,12.73-29.33,23.3A7,7,0,0,1,163.72,175.29Z"/><polygon class="cls-3" points="104.24 272 106.88 267.44 171.3 303.51 142.74 351.71 78.79 315.89 104.24 272"/><path class="cls-5" d="M95.27,318.37a7,7,0,0,1-6-10.51l19.51-33.65,49.39,27.65a7,7,0,1,1-6.84,12.22l-37.36-20.92-12.59,21.72A7,7,0,0,1,95.27,318.37Z"/><path class="cls-7" d="M126.34,479.42l-21.88-13a7,7,0,0,1,7.14-12l9.83,5.82,59.8-100.92a7,7,0,0,1,12.05,7.14Z"/><path class="cls-7" d="M256.15,246.08a7,7,0,0,1-5.9-10.75l13.64-21.48a46.89,46.89,0,0,1-15.38-25.39,7,7,0,0,1,13.65-3.14,32.81,32.81,0,0,0,14.3,20.45l6.5,4.17-20.89,32.89A7,7,0,0,1,256.15,246.08Z"/><path class="cls-4" d="M328,116a44,44,0,0,1-9.78-1.1,8,8,0,0,1,3.56-15.6,27.52,27.52,0,0,0,6.22.7,28,28,0,0,0,20.85-46.66,8,8,0,0,1,11.92-10.68A44,44,0,0,1,328,116Z"/><path d="M48,448v16H75a7.54,7.54,0,0,0,.87.61L124,493.15a8,8,0,0,0,11-2.8l59.54-100.48,29.63,16.59A51.23,51.23,0,0,0,280.09,403a51.22,51.22,0,0,0,20-52.37l-22.67-107.7,14.89-23.45L339.91,250a53,53,0,0,0,81.15-33l18.76-87.54a8,8,0,0,0-6.14-9.5l-54.76-11.74a8,8,0,0,0-9.5,6.14l-12.95,60.46L325,154.7q-.35-.27-.72-.51l-56.46-35.86c-.08-.08-.15-.16-.24-.24a8.1,8.1,0,0,0-2.55-1.53l-1.53-1a8,8,0,0,0-9.82,1l-55.63,3.49a59.73,59.73,0,0,0-32.12,107.4l12,9a45.33,45.33,0,0,0-2.89,25.93L177.73,277l-9.33,15.76-57.61-32.26a8,8,0,0,0-10.83,3l-.33.57H48v16H90.35L71.87,311.88a8,8,0,0,0,3,11l56.8,31.81L76.38,448ZM357.58,194.45a8,8,0,0,0,12.12-5.07l13.69-63.9,39.11,8.39-17.08,79.71a37,37,0,0,1-56.7,23l-.13-.08-54.43-34.86h0l-10.7-6.85a20.19,20.19,0,0,1-6.29-27.38A20,20,0,0,1,305.1,161Zm-197.7-27.3C164.1,153,176.61,137.43,199.06,136l43.73-2.73-27.08,42.64L204,169.1,196,182.9l11.16,6.54-21,33.13-10.54-7.91C157.55,201.17,155.66,181.27,159.88,167.15ZM89.78,312.88,108.85,280H112v-.52l48.24,27-20.4,34.42ZM193,282.55a8,8,0,0,0,1-5.51l-3.18-17.5a28.94,28.94,0,0,1-.48-5.27,29.46,29.46,0,0,1,4.6-15.82l66.73-105.07,18.1,11.49a36.11,36.11,0,0,0-4.94,63.43l4,2.55L262.16,237.1a8,8,0,0,0-1.08,5.94l23.34,110.89A35.76,35.76,0,0,1,232,392.5l-29.29-16.4,20.41-34.42,4.91,2.75a8,8,0,0,0,11.74-8.63l-3.45-16.4,16.09-27.12-13.76-8.16-17.68,29.79,6.89,4.09h0l-6.87-4.08L125.29,475.31,90.87,454.92Z"/><rect x="16" y="448" width="16" height="16"/><path d="M232,16V32h56.86A56,56,0,1,0,320,16.58V16ZM368,72a40,40,0,1,1-40-40A40,40,0,0,1,368,72Z"/><rect x="200" y="16" width="16" height="16"/><rect x="16" y="264" width="16" height="16"/><rect x="200" y="80" width="24" height="16"/><rect x="80" y="176" width="40" height="16"/></g></svg>