<?xml version="1.0" encoding="utf-8"?>
<!-- Generator: Adobe Illustrator 24.3.0, SVG Export Plug-In . SVG Version: 6.00 Build 0)  -->
<svg version="1.1" id="Layer_1" xmlns="http://www.w3.org/2000/svg" xmlns:xlink="http://www.w3.org/1999/xlink" x="0px" y="0px"
	 viewBox="0 0 64 64" enable-background="new 0 0 64 64" xml:space="preserve">
<path fill="#F58661" d="M43.2,41l5-4.4l-1.9-3.7c-1.4-4.1-5.2-6.8-9.5-6.8H35h-6h-1.8c-4.3,0-8.1,2.8-9.5,6.8l-1.7,3.2l4.8,4.8
	l1.3-1.7c0.1,3,0,5.9-0.4,8.8h20.5c-0.4-2.9-0.5-5.9-0.4-8.8L43.2,41z"/>
<path fill="#754822" d="M41,10.2V11c2.2,0,4-1.8,4-4c0-2.2-1.8-4-4-4c-1.2,0-2.3,0.5-3,1.4C39.8,5.7,41,7.8,41,10.2z"/>
<path fill="#F7BE99" d="M19.3,59.9l0.6,1.1H32h8l-8-6l-12-2.2l-0.3,0.4C18.2,55.2,18.1,57.8,19.3,59.9z"/>
<path fill="#F0AE84" d="M45.1,61l0.8-1.4c1.3-2.2,1-5.1-0.6-7l0,0L32,55l8,6H45.1z"/>
<path fill="#F5BB4F" d="M45.9,59.6L45.1,61h9.4c1.5-0.2,2.6-5.5,2.6-7c0-1.8-1.6-3.2-3.4-2.9l-8.4,1.5l0,0
	C46.9,54.5,47.1,57.3,45.9,59.6z"/>
<path fill="#F5BB4F" d="M7,54c0,1.5,1.1,6.8,2.6,7h10.3l-0.6-1.1c-1.2-2.1-1-4.7,0.4-6.6l0.3-0.4L10.4,51C8.6,50.8,7,52.2,7,54z"/>
<path fill="#F7BE99" d="M59.1,47.8l-1.2-0.1l0.7-1.1c0.2-0.3,0.3-0.8,0.1-1.1c-0.3-0.7-1.3-0.8-1.8-0.3l-2.2,2.2
	c-1.7-0.2-3.2-4.2-3.9-5.7l-2.6-5l-5,4.4l2.8,3.8c1.9,2.6,5,7.2,8.2,7.2h4.7c1.2,0,2.1-0.9,2.1-2.1C61,48.8,60.2,47.9,59.1,47.8z"/>
<path fill="#F7BE99" d="M9.3,47.3l-2.2-2.2c-0.5-0.5-1.5-0.4-1.8,0.3c-0.2,0.4-0.2,0.8,0.1,1.1l0.7,1.1l-1.2,0.1
	c-1.1,0.1-1.9,1-1.9,2.1C3,51.1,3.9,52,5.1,52h4.7c3.3,0,6.3-4.6,8.2-7.2l2.8-3.9l-4.8-4.8l-2.8,5.5C12.5,43.1,11,47.1,9.3,47.3z"/>
<path fill="#F5BB4F" d="M20.8,52.9L32,55l11.2-2c-0.4-1.6-0.7-3.3-0.9-4.9H21.7C21.5,49.7,21.2,51.3,20.8,52.9z"/>
<path fill="#F59473" d="M17.7,34.8c1.4-4.1,5.2-6.8,9.5-6.8H29h6h1.8c4.3,0,8.1,2.8,9.5,6.8l1.2,2.4l0.7-0.6l-1.9-3.7
	c-1.4-4.1-5.2-6.8-9.5-6.8H35h-6h-1.8c-4.3,0-8.1,2.8-9.5,6.8l-1.7,3.2l0.7,0.7L17.7,34.8z"/>
<path fill="#F0AE84" d="M29,22.9V28c0,1.7,1.3,3,3,3s3-1.3,3-3v-5.1H29z"/>
<path fill="#F7BE99" d="M34.7,24.8l2.2-1.8c2.6-2.1,4.1-5.7,4.1-9v-1h-8c-2.8,0-5-2.2-5-5c0,2.8-2.2,5-5,5v1c0,3.3,1.5,6.9,4.1,9
	l1.9,1.6l0.3,0.2C30.9,26.1,33.1,26.1,34.7,24.8z"/>
<path fill="#E6AC40" d="M43.2,52.9c-0.2-1-0.4-1.9-0.6-2.9l-10.4,2.5l-10.7-2.3c-0.2,0.9-0.3,1.8-0.6,2.7L32,55L43.2,52.9z"/>
<path fill="#FFFFFF" d="M32,42l-3.7-2.9c-0.8-0.6-0.9-1.7-0.4-2.5l0,0c0.6-0.9,1.7-1.1,2.6-0.5l1.4,1l1.4-1c0.9-0.6,2-0.3,2.6,0.5v0
	c0.5,0.8,0.4,1.9-0.4,2.5L32,42z"/>
<path fill="#754822" d="M28,10c0,2.8,2.2,5,5,5h8v-4v-0.8c0-2.4-1.2-4.5-3-5.9l0,0l0,0C36.8,3.5,35.3,3,33.8,3h-3.5
	c-4,0-7.2,3.2-7.2,7.2V15C25.8,15,28,12.8,28,10z"/>
<rect x="52" y="4" fill="#F58661" width="2" height="2"/>
<rect x="56" y="16" fill="#F58661" width="2" height="2"/>
<rect x="60" y="16" fill="#F58661" width="2" height="2"/>
<rect x="58" y="14" fill="#F58661" width="2" height="2"/>
<rect x="58" y="18" fill="#F58661" width="2" height="2"/>
<rect x="12" y="23" fill="#F58661" width="2" height="2"/>
<rect x="10" y="21" fill="#F58661" width="2" height="2"/>
<rect x="8" y="23" fill="#F58661" width="2" height="2"/>
<rect x="10" y="25" fill="#F58661" width="2" height="2"/>
<rect x="2" y="8" fill="#F58661" width="2" height="2"/>
<rect x="6" y="8" fill="#F58661" width="2" height="2"/>
<rect x="4" y="6" fill="#F58661" width="2" height="2"/>
<rect x="4" y="10" fill="#F58661" width="2" height="2"/>
<rect x="15" y="2" fill="#F58661" width="2" height="2"/>
<rect x="53" y="27" fill="#F58661" width="2" height="2"/>
</svg>
